.
..............................Site Info...........................

 -   http://www.scenetime.com  *_*   

SceneTime is going to Close sign up on march/1, hurry up! get in before the doors are closed.

     We care to share . Join us on  http://www.scenetime.com 

    Be the first to get new release at  http://www.scenetime.com

        Seed back for speed


...................................NFO:.................................................








































          
          
              
              
                    
                    
                    
                    

Death.Spa.1990.DVDRiP.AC3-2.0.XviD-SiC

Poster:
[img]http://img692.imageshack.us/img692/6448/whateverhappenedtobabyj.jpg[/img]

IMDB Link: 
http://www.imdb.com/title/tt0099384/

Description: Michael's health club is beseiged with a series of terrible murders involving killer saunas and other grisly devices. Michael's wife killed herself a while before and her brother holds Michael responsible. Michael needs to stop the bloodshed before he loses all of his clients.





General
Complete name                    : Death.Spa.1990.DVDRiP.AC3-2.0.XviD-SiC.avi
Format                           : AVI
Format/Info                      : Audio Video Interleave
File size                        : 1.36 GiB
Duration                         : 1h 23mn
Overall bit rate                 : 2 317 Kbps

Video
ID                               : 0
Format                           : MPEG-4 Visual
Format profile                   : Simple@L3
Format settings, BVOP            : 2
Format settings, QPel            : No
Format settings, GMC             : No warppoints
Format settings, Matrix          : Default (H.263)
Muxing mode                      : Packed bitstream
Codec ID                         : XVID
Codec ID/Hint                    : XviD
Duration                         : 1h 23mn
Bit rate                         : 2 054 Kbps
Width                            : 720 pixels
Height                           : 544 pixels
Display aspect ratio             : 4:3
Frame rate                       : 25.000 fps
Color space                      : YUV
Chroma subsampling               : 4:2:0
Bit depth                        : 8 bits
Scan type                        : Progressive
Compression mode                 : Lossy
Bits/(Pixel*Frame)               : 0.210
Stream size                      : 1.20 GiB (89%)
Writing library                  : XviD 1.0.3 (UTC 2004-12-20)

Audio
ID                               : 1
Format                           : AC-3
Format/Info                      : Audio Coding 3
Mode extension                   : CM (complete main)
Codec ID                         : 2000
Duration                         : 1h 23mn
Bit rate mode                    : Constant
Bit rate                         : 256 Kbps
Channel(s)                       : 2 channels
Channel positions                : Front: L R
Sampling rate                    : 48.0 KHz
Bit depth                        : 16 bits
Compression mode                 : Lossy
Stream size                      : 153 MiB (11%)
Alignment                        : Aligned on interleaves
Interleave, duration             : 64 ms (1.61 video frames)
Interleave, preload duration     : 192 ms
Title                            : VTS_01_1 T81 2_0ch 192Kbps DELAY 0ms_new





























Screenshots:
[img]http://img213.imageshack.us/img213/2185/vlcsnap2012020621h08m31.png[/img]
[img]http://img31.imageshack.us/img31/8193/vlcsnap2012020621h08m34.png[/img]
[img]http://img442.imageshack.us/img442/7724/vlcsnap2012020621h08m38.png[/img]
[img]http://img141.imageshack.us/img141/3369/vlcsnap2012020621h08m53.png[/img]




Note :  

Source: Friend of a friend. 

Enjoy!

Respects to T00NG0D, CM8, Rx, ELEKTRI4KA, PA, YeFsTe, MrRep and everyone in the struggle...